<svg xmlns="http://www.w3.org/2000/svg" viewBox="0 0 605.55 960"><defs><style>.a{fill:#f0f0f0;}</style></defs><title>scroll-arrows</title><path class="a" d="M678.56,384,489.75,195.19a13.78,13.78,0,0,0-19.5,0L281.44,384a23,23,0,0,1-32.5,0l-65-65a23,23,0,0,1,0-32.5L463.75,6.73a23,23,0,0,1,32.5,0L776,286.52a23,23,0,0,1,0,32.5l-65,65A23,23,0,0,1,678.56,384Z" transform="translate(-177.23)"/><path class="a" d="M281.44,576,470.25,764.81a13.78,13.78,0,0,0,19.5,0L678.56,576a23,23,0,0,1,32.5,0l65,65a23,23,0,0,1,0,32.5L496.25,953.27a23,23,0,0,1-32.5,0L184,673.48a23,23,0,0,1,0-32.5l65-65A23,23,0,0,1,281.44,576Z" transform="translate(-177.23)"/></svg>